<svg width="17" height="16" viewBox="0 0 17 16" fill="none" xmlns="http://www.w3.org/2000/svg">
<path d="M1 7.82171C1 5.11433 1 3.76028 1.84144 2.91956C2.68287 2.07884 4.03621 2.07813 6.74359 2.07813H9.61538C12.3228 2.07813 13.6768 2.07812 14.5175 2.91956C15.3583 3.761 15.359 5.11433 15.359 7.82171V9.25761C15.359 11.965 15.359 13.319 14.5175 14.1598C13.6761 15.0005 12.3228 15.0012 9.61538 15.0012H6.74359C4.03621 15.0012 2.68215 15.0012 1.84144 14.1598C1.00072 13.3183 1 11.965 1 9.25761V7.82171Z" stroke="#4D4D4D" stroke-width="1.5"/>
<path d="M4.59014 2.07692V1M11.7696 2.07692V1M1.35938 5.66667H15.0004" stroke="#4D4D4D" stroke-width="1.5" stroke-linecap="round"/>
<path d="M11.9904 11.4101C11.9904 11.4679 11.9674 11.5233 11.9265 11.5642C11.8857 11.605 11.8302 11.628 11.7724 11.628C11.7146 11.628 11.6592 11.605 11.6183 11.5642C11.5774 11.5233 11.5545 11.4679 11.5545 11.4101C11.5545 11.3523 11.5775 11.2968 11.6183 11.2559C11.6592 11.2151 11.7146 11.1921 11.7724 11.1921C11.8302 11.1921 11.8857 11.2151 11.9265 11.2559L12.2801 10.9024L11.9265 11.2559C11.9674 11.2968 11.9904 11.3523 11.9904 11.4101ZM4.43884 11.2559L4.0952 10.9123L4.43884 11.2559C4.47971 11.2151 4.53514 11.1921 4.59295 11.1921C4.65075 11.1921 4.70619 11.2151 4.74706 11.2559C4.78793 11.2968 4.8109 11.3523 4.8109 11.4101C4.8109 11.4679 4.78793 11.5233 4.74706 11.5642C4.70619 11.605 4.65075 11.628 4.59295 11.628C4.53514 11.628 4.47971 11.605 4.43884 11.5642C4.39796 11.5233 4.375 11.4679 4.375 11.4101C4.375 11.3523 4.39796 11.2968 4.43884 11.2559ZM11.9904 8.53826C11.9904 8.59606 11.9674 8.6515 11.9265 8.69237C11.8857 8.73325 11.8302 8.75621 11.7724 8.75621C11.7146 8.75621 11.6592 8.73325 11.6183 8.69237C11.5774 8.6515 11.5545 8.59607 11.5545 8.53826C11.5545 8.48046 11.5774 8.42502 11.6183 8.38415C11.6592 8.34328 11.7146 8.32031 11.7724 8.32031C11.8302 8.32031 11.8857 8.34327 11.9265 8.38415C11.9674 8.42502 11.9904 8.48046 11.9904 8.53826ZM8.02858 8.69237L7.67503 9.04593L8.02858 8.69237C7.98771 8.6515 7.96474 8.59606 7.96474 8.53826C7.96474 8.48046 7.98771 8.42502 8.02858 8.38415L7.68494 8.04051L8.02858 8.38415C8.06945 8.34327 8.12489 8.32031 8.18269 8.32031C8.2405 8.32031 8.29593 8.34327 8.33681 8.38415C8.37768 8.42502 8.40064 8.48046 8.40064 8.53826C8.40064 8.59606 8.37768 8.6515 8.33681 8.69237C8.29593 8.73325 8.2405 8.75621 8.18269 8.75621C8.12489 8.75621 8.06945 8.73325 8.02858 8.69237ZM8.40064 11.4101C8.40064 11.4679 8.37768 11.5233 8.33681 11.5642C8.29593 11.605 8.2405 11.628 8.18269 11.628C8.12489 11.628 8.06945 11.605 8.02858 11.5642C7.98771 11.5233 7.96474 11.4679 7.96474 11.4101C7.96474 11.3523 7.98771 11.2968 8.02858 11.2559C8.06945 11.2151 8.12489 11.1921 8.18269 11.1921C8.2405 11.1921 8.29593 11.2151 8.33681 11.2559C8.37768 11.2968 8.40064 11.3523 8.40064 11.4101ZM4.8109 8.53826C4.8109 8.59606 4.78794 8.6515 4.74706 8.69237C4.70619 8.73325 4.65075 8.75621 4.59295 8.75621C4.53515 8.75621 4.47971 8.73325 4.43884 8.69237C4.39796 8.6515 4.375 8.59606 4.375 8.53826C4.375 8.48046 4.39796 8.42502 4.43884 8.38415C4.47971 8.34327 4.53515 8.32031 4.59295 8.32031C4.65075 8.32031 4.70619 8.34327 4.74706 8.38415C4.78794 8.42502 4.8109 8.48046 4.8109 8.53826Z" stroke="#4D4D4D"/>
</svg>
