<svg width="13" height="14" viewBox="0 0 13 14" fill="none" xmlns="http://www.w3.org/2000/svg">
<path d="M6.4179 0C9.9625 0 12.8358 2.87329 12.8358 6.4179C12.8358 9.9625 9.9625 12.8358 6.4179 12.8358C2.87329 12.8358 0 9.9625 0 6.4179C0 2.87329 2.87329 0 6.4179 0ZM6.4179 1.28358C5.05619 1.28358 3.75026 1.82452 2.78739 2.78739C1.82452 3.75026 1.28358 5.05619 1.28358 6.4179C1.28358 7.7796 1.82452 9.08554 2.78739 10.0484C3.75026 11.0113 5.05619 11.5522 6.4179 11.5522C7.7796 11.5522 9.08554 11.0113 10.0484 10.0484C11.0113 9.08554 11.5522 7.7796 11.5522 6.4179C11.5522 5.05619 11.0113 3.75026 10.0484 2.78739C9.08554 1.82452 7.7796 1.28358 6.4179 1.28358ZM6.4179 2.56716C6.57509 2.56718 6.72681 2.62489 6.84428 2.72935C6.96175 2.83381 7.0368 2.97774 7.05519 3.13386L7.05969 3.20895V6.1522L8.79701 7.88952C8.91212 8.00502 8.97894 8.15999 8.98392 8.32298C8.9889 8.48596 8.93165 8.64472 8.82381 8.76703C8.71597 8.88933 8.56561 8.966 8.40329 8.98146C8.24097 8.99692 8.07884 8.95002 7.94985 8.85028L7.88952 8.79701L5.96415 6.87164C5.8644 6.77181 5.80034 6.64188 5.78188 6.50197L5.77611 6.4179V3.20895C5.77611 3.03874 5.84372 2.87549 5.96408 2.75513C6.08444 2.63478 6.24768 2.56716 6.4179 2.56716Z" fill="black"/>
</svg>
