<svg width="37" height="37" viewBox="0 0 37 37" fill="none" xmlns="http://www.w3.org/2000/svg">
<path opacity="0.25" fill-rule="evenodd" clip-rule="evenodd" d="M18.5 36C28.165 36 36 28.165 36 18.5C36 8.83502 28.165 1 18.5 1C8.83502 1 1 8.83502 1 18.5C1 28.165 8.83502 36 18.5 36Z" stroke="white" stroke-width="1.5"/>
<path d="M14.4835 14.9671C15.3029 14.9671 15.9671 14.3029 15.9671 13.4835C15.9671 12.6642 15.3029 12 14.4835 12C13.6642 12 13 12.6642 13 13.4835C13 14.3029 13.6642 14.9671 14.4835 14.9671Z" fill="white"/>
<path d="M15.7198 15.9609H13.2473C13.1108 15.9609 13 16.0717 13 16.2082V23.6259C13 23.7624 13.1108 23.8732 13.2473 23.8732H15.7198C15.8563 23.8732 15.9671 23.7624 15.9671 23.6259V16.2082C15.9671 16.0717 15.8563 15.9609 15.7198 15.9609Z" fill="white"/>
<path d="M23.0915 15.5444C22.0347 15.1825 20.7128 15.5004 19.9201 16.0706C19.8929 15.9643 19.796 15.8852 19.6808 15.8852H17.2082C17.0717 15.8852 16.9609 15.9959 16.9609 16.1324V23.5502C16.9609 23.6867 17.0717 23.7974 17.2082 23.7974H19.6808C19.8173 23.7974 19.928 23.6867 19.928 23.5502V18.2193C20.3276 17.8751 20.8424 17.7653 21.2637 17.9443C21.6722 18.1169 21.9061 18.5383 21.9061 19.0995V23.5502C21.9061 23.6867 22.0169 23.7974 22.1534 23.7974H24.6259C24.7624 23.7974 24.8732 23.6867 24.8732 23.5502V18.6015C24.845 16.5696 23.8891 15.8174 23.0915 15.5444Z" fill="white"/>
</svg>
