<svg width="10" height="13" viewBox="0 0 10 13" fill="none" xmlns="http://www.w3.org/2000/svg">
<path d="M5.71029 11.9134L0.601562 6.80469V7.84835C0.601562 8.12492 0.711147 8.39105 0.909443 8.58413L4.97451 12.6492C5.38154 13.0562 6.04426 13.0562 6.45129 12.6492L9.69186 9.40863C10.0989 9.0016 10.0989 8.33887 9.69186 7.93184L5.71029 11.9134Z" fill="black"/>
<path d="M4.97451 10.0382C5.17802 10.2417 5.44416 10.3461 5.71029 10.3461C5.97643 10.3461 6.24256 10.2417 6.44607 10.0382L9.68665 6.79764C10.0937 6.39061 10.0937 5.72788 9.68665 5.32085L5.62158 1.25579C5.4285 1.06271 5.16237 0.953125 4.8858 0.953125H1.64523C1.07121 0.953125 0.601562 1.42277 0.601562 1.99679V5.23736C0.601562 5.51393 0.711147 5.78006 0.909443 5.97314L4.97451 10.0382ZM1.64523 1.99679H4.8858L8.95086 6.06185L5.71029 9.30243L1.64523 5.23736V1.99679Z" fill="black"/>
<path d="M2.81635 3.8202C3.1766 3.8202 3.46864 3.52816 3.46864 3.16791C3.46864 2.80766 3.1766 2.51562 2.81635 2.51562C2.4561 2.51562 2.16406 2.80766 2.16406 3.16791C2.16406 3.52816 2.4561 3.8202 2.81635 3.8202Z" fill="black"/>
</svg>
