<svg width="14" height="13" viewBox="0 0 14 13" fill="none" xmlns="http://www.w3.org/2000/svg">
<path d="M10.3113 4.59106H2.88537C2.65611 4.59106 2.47158 4.77559 2.47158 5.00486C2.47158 5.23412 2.65611 5.41865 2.88537 5.41865H10.3057C10.535 5.41865 10.7195 5.23412 10.7195 5.00486C10.7195 4.77559 10.535 4.59106 10.3113 4.59106ZM7.42033 6.24624H2.88537C2.65611 6.24624 2.47158 6.43077 2.47158 6.66003C2.47158 6.8893 2.65611 7.07383 2.88537 7.07383H7.42033C7.6496 7.07383 7.83413 6.8893 7.83413 6.66003C7.83413 6.43077 7.6496 6.24624 7.42033 6.24624ZM10.3113 2.93589H2.88537C2.65611 2.93589 2.47158 3.12042 2.47158 3.34968C2.47158 3.57895 2.65611 3.76348 2.88537 3.76348H10.3057C10.535 3.76348 10.7195 3.57895 10.7195 3.34968C10.7195 3.12042 10.535 2.93589 10.3113 2.93589ZM11.9609 0.453125H1.23579C0.553589 0.453125 0 1.00671 0 1.69451V8.70105C0 9.38884 0.553589 9.94243 1.23579 9.94243H2.88537V11.6927C3.0028 12.2071 3.60113 12.8222 4.57969 12.1736L7.05127 9.94243H11.9609C12.6431 9.94243 13.1967 9.38884 13.1967 8.70105V1.69451C13.1967 1.00671 12.6431 0.453125 11.9609 0.453125ZM12.3691 8.28725C12.3691 8.74578 12 9.11484 11.5415 9.11484H6.78846L4.05406 11.5529C3.58994 12.1288 3.71855 10.6246 3.71855 9.97039H3.71296V9.12043H1.64958C1.19665 9.12043 0.821996 8.75137 0.821996 8.29284V2.1083C0.821996 1.64977 1.19106 1.28071 1.64958 1.28071H11.5471C12 1.28071 12.3747 1.64977 12.3747 2.1083L12.3691 8.28725Z" fill="white"/>
</svg>
